<svg width="500" height="218" viewBox="0 0 500 218" fill="none" xmlns="http://www.w3.org/2000/svg">
<path d="M-7 57.2584C-7 52.2101 -2.38141 48.4237 2.56893 49.4138L5.5 50L11.8563 51.1918C12.9404 51.3951 14.0548 51.372 15.1295 51.124L20 50L24.2748 49.0135C25.5553 48.718 26.8601 49.4002 27.3481 50.6203V50.6203C27.9541 52.1352 29.767 52.7547 31.1733 51.9275L34.4475 50.0014C36.0545 49.0562 38.0126 48.9219 39.7335 49.639L47.5231 52.8846C48.498 53.2908 49.5438 53.5 50.6 53.5H68.8531C69.2837 53.5 69.7135 53.5348 70.1385 53.6039L89.6302 56.777C90.5366 56.9246 91.4617 56.9149 92.3649 56.7486L108.766 53.7273C109.584 53.5767 110.42 53.5544 111.244 53.6613L135.499 56.8055C136.491 56.934 137.498 56.8755 138.468 56.633L157.659 51.8353C158.546 51.6134 159.465 51.5454 160.376 51.6342L178.532 53.4055C179.175 53.4683 179.823 53.4529 180.463 53.3596L201.619 50.2743C202.856 50.0939 204.118 50.2059 205.303 50.6011L211.45 52.6499C213.104 53.2015 214.894 53.1972 216.546 52.6376L227.931 48.7814C228.966 48.4309 229.918 47.872 230.729 47.1393L242.5 36.5L254 25L262.681 14.7193C263.224 14.0771 263.864 13.5244 264.578 13.0815L276 6L282.491 1.58591C285.899 -0.731427 290.51 -0.0807503 293.143 3.08917L301.579 13.2436C301.859 13.5806 302.166 13.8941 302.498 14.1808L313.859 24.0123C314.613 24.665 315.238 25.453 315.703 26.3357L318.844 32.303C319.597 33.734 320.766 34.9032 322.197 35.6563L328.648 39.0517C329.214 39.3495 329.814 39.5784 330.434 39.7335L342.545 42.7611C343.179 42.9198 343.831 43 344.485 43H355.862C356.617 43 357.368 43.1068 358.093 43.3172L370.425 46.8976C371.784 47.2921 373.223 47.3192 374.596 46.976L396.097 41.6009C397.662 41.2095 399.31 41.3007 400.822 41.8626L416 47.5L437.487 53.2299C438.159 53.4092 438.852 53.5 439.548 53.5H462.338C462.779 53.5 463.218 53.4636 463.653 53.3912L484 50L497.617 48.487C502.355 47.9605 506.5 51.67 506.5 56.4381V210C506.5 214.418 502.918 218 498.5 218H0.999993C-3.41829 218 -7 214.418 -7 210V57.2584Z" fill="white"/>
</svg>
