<svg width="500" height="186" viewBox="0 0 500 186" fill="none" xmlns="http://www.w3.org/2000/svg">
<path d="M-26 61.8481C-26 58.8144 -24.284 56.0417 -21.569 54.6883L-11.8 49.8187L1.36106 43.2583C2.05008 42.9148 2.78507 42.6726 3.5433 42.5391L8.78788 41.6161C9.44933 41.4997 10.1228 41.467 10.7924 41.5189L25.1894 42.634C26.0983 42.7044 27.0126 42.6189 27.8927 42.3813L35.1731 40.4155C35.7228 40.267 36.2551 40.0603 36.7609 39.7989L45.1865 35.444C45.9949 35.0261 46.8686 34.7493 47.7701 34.6253L65.5044 32.1869C66.4928 32.051 67.4469 31.7315 68.3178 31.2448L82 23.5976L93.5 15.5595L104 9L116.5 3.23928L122.037 0.768356C124.509 -0.334638 127.371 -0.113 129.643 1.35741L133.747 4.01281C134.247 4.33659 134.71 4.71527 135.126 5.14181L142.5 12.6972L150 19.5L154 23.5976L163.144 31.9813L173.383 39.0726C174.445 39.808 175.67 40.2754 176.951 40.4347L194.329 42.5948C195.106 42.6913 195.864 42.9012 196.579 43.2177L210.738 49.4815C211.245 49.7057 211.773 49.8767 212.315 49.9916L225.001 52.6808C225.791 52.8481 226.601 52.895 227.404 52.82L240.023 51.6417C241.479 51.5058 242.869 50.9736 244.044 50.103L255.728 41.4408L271.5 31.9813L284.209 24.0886C284.735 23.7623 285.296 23.4981 285.882 23.3012L300.5 18.3909L319.408 12.8702C319.802 12.7551 320.187 12.6097 320.559 12.4355L333.534 6.35752C336.005 5.20019 338.895 5.38185 341.202 6.83942L355 15.5595L370.891 23.0732C371.626 23.4207 372.41 23.6542 373.215 23.7655L390.639 26.1737C392.18 26.3866 393.625 27.0438 394.797 28.0648L401.137 33.5847C402.065 34.3924 403.167 34.9754 404.356 35.2881L426.468 41.1021C427.321 41.3263 428.205 41.408 429.085 41.3439L443.91 40.2624C444.549 40.2157 445.18 40.0924 445.79 39.8951L459.262 35.5368C460.723 35.064 462.289 35.0219 463.774 35.4155L480.994 39.9807C481.525 40.1213 482.068 40.207 482.616 40.2364L505.08 41.4408L523 40.2471C523.548 40.2106 524.098 40.2306 524.642 40.3069L535.111 41.7745C539.061 42.3284 542 45.7079 542 49.697V186.5C542 190.918 538.418 194.5 534 194.5H-18C-22.4183 194.5 -26 190.918 -26 186.5V61.8481Z" fill="#E7E7E7"/>
</svg>
