<svg width="500" height="130" viewBox="0 0 500 130" fill="none" xmlns="http://www.w3.org/2000/svg">
<path d="M-8.5 29.3271C-8.5 25.4032 -5.65403 22.0585 -1.7807 21.4303L38.0377 14.9726C38.6769 14.8689 39.3011 14.6881 39.8966 14.4339L61.2893 5.30608C61.8612 5.06208 62.4595 4.88558 63.0722 4.78014L69.469 3.6794L86.7084 0.161533C87.2348 0.0541177 87.7707 0 88.3079 0H103.5H118.929C119.64 0 120.347 0.0946791 121.033 0.281538L132.713 3.46493C133.236 3.60754 133.773 3.69657 134.314 3.73065L152.735 4.89065C153.244 4.9227 153.748 5.00334 154.242 5.13146L172.511 9.87377C173.168 10.0442 173.843 10.1304 174.521 10.1304H189.723C191.211 10.1304 192.67 10.5457 193.936 11.3296L207.517 19.7431C210.237 21.4278 213.699 21.3303 216.319 19.4951L219.162 17.5043C221.532 15.8443 224.614 15.5938 227.222 16.8491L237.355 21.7281C238.438 22.2494 239.624 22.52 240.826 22.52H260.5H278.158C278.718 22.52 279.276 22.5788 279.824 22.6953L298.249 26.6174C299.329 26.8473 300.445 26.8511 301.527 26.6286L321.5 22.52L342.974 15.6274C344.614 15.1009 346.38 15.1179 348.01 15.6759L367.461 22.3354C367.82 22.4583 368.17 22.6067 368.508 22.7793L385.858 31.6396C386.285 31.8578 386.731 32.0371 387.19 32.1754L409.343 38.8438C410.11 39.0747 410.838 39.4194 411.503 39.8665L428.733 51.4582C429.243 51.801 429.79 52.0839 430.364 52.3014L473.5 68.6461L495.178 74.7792C498.622 75.7537 501 78.8975 501 82.4771V124C501 128.418 497.418 132 493 132H-0.500009C-4.91829 132 -8.5 128.418 -8.5 124V29.3271Z" fill="#D1D1D1"/>
</svg>
