<svg width="338" height="92" viewBox="0 0 338 92" fill="none" xmlns="http://www.w3.org/2000/svg">
<path d="M8.86222 100.5C1.65911 100.5 -1.87491 91.7259 3.31733 86.7333L14.3391 76.1354C14.7783 75.7132 15.2642 75.3425 15.7875 75.0305L40.14 60.5127C40.7111 60.1722 41.3224 59.9043 41.9598 59.7151L73 50.5L100 39L131 30L167.5 21.5L194.427 17.5833C194.809 17.5278 195.193 17.5 195.579 17.5H235.486C236.159 17.5 236.83 17.415 237.482 17.2471L269.5 9L304.545 0.23886C305.179 0.0802187 305.831 0 306.485 0H340.5C344.918 0 348.5 3.58172 348.5 8V92.5C348.5 96.9183 344.918 100.5 340.5 100.5H8.86222Z" fill="#C5C5C5"/>
</svg>
