<svg width="291" height="78" viewBox="0 0 291 78" fill="none" xmlns="http://www.w3.org/2000/svg">
<path d="M-6 31.6715C-6 29.4843 -5.10451 27.3925 -3.52191 25.8829L7.31532 15.545C9.0123 13.9262 11.3341 13.1336 13.6668 13.3768L41.5139 16.28C42.171 16.3485 42.834 16.3353 43.4878 16.2408L64.1889 13.2488C65.3523 13.0807 66.4643 12.6582 67.4459 12.0115L82.3999 2.15888C84.4667 0.79712 87.0475 0.468726 89.3895 1.26947L102.2 5.64935L136.784 16.0445C137.531 16.269 138.307 16.3831 139.087 16.3831H168.191C169.312 16.3831 170.42 16.6187 171.444 17.0746L196.541 28.2468L226.108 39.2427C226.649 39.444 227.167 39.7032 227.653 40.0158L254.106 57.0584L286.619 72.8766V72.8766C293.811 76.2199 291.427 87 283.496 87H2C-2.41827 87 -6 83.4183 -6 79V31.6715Z" fill="#BBBBBB"/>
</svg>
